<svg xmlns="http://www.w3.org/2000/svg" xmlns:xlink="http://www.w3.org/1999/xlink" viewBox="0 0 506.35 530.12"><defs><style>.cls-1,.cls-16{fill:none;}.cls-2{clip-path:url(#clip-path);}.cls-3{clip-path:url(#clip-path-2);}.cls-4{fill:#9e9e9e;}.cls-5{clip-path:url(#clip-path-3);}.cls-6{clip-path:url(#clip-path-4);}.cls-7{clip-path:url(#clip-path-5);}.cls-8{clip-path:url(#clip-path-6);}.cls-9{clip-path:url(#clip-path-7);}.cls-10,.cls-17{fill:#de5a2e;}.cls-11{clip-path:url(#clip-path-8);}.cls-12{clip-path:url(#clip-path-9);}.cls-13{clip-path:url(#clip-path-10);}.cls-14{clip-path:url(#clip-path-11);}.cls-15{clip-path:url(#clip-path-12);}.cls-16{stroke:#de5a2e;stroke-miterlimit:10;stroke-width:2px;}.cls-17,.cls-18{isolation:isolate;}.cls-17{opacity:0.7;}.cls-19{fill:#040000;}</style><clipPath id="clip-path" transform="translate(-55.17 -52.09)"><polygon class="cls-1" points="185.59 147.25 185.59 465.97 157.46 465.97 157.46 534.31 48.32 534.31 48.32 461.24 76.45 461.24 76.45 147.25 185.59 147.25"/></clipPath><clipPath id="clip-path-2" transform="translate(-55.17 -52.09)"><rect class="cls-1" x="88.53" y="164" width="93.75" height="363"/></clipPath><clipPath id="clip-path-3" transform="translate(-55.17 -52.09)"><polygon class="cls-1" points="360.78 147.25 360.78 465.97 332.65 465.97 332.65 534.31 223.51 534.31 223.51 461.24 251.64 461.24 251.64 147.25 360.78 147.25"/></clipPath><clipPath id="clip-path-4" transform="translate(-55.17 -52.09)"><rect class="cls-1" x="263.72" y="164" width="93.75" height="363"/></clipPath><clipPath id="clip-path-5" transform="translate(-55.17 -52.09)"><polygon class="cls-1" points="530.25 147.25 530.25 465.97 502.13 465.97 502.13 534.31 392.99 534.31 392.99 461.24 421.12 461.24 421.12 147.25 530.25 147.25"/></clipPath><clipPath id="clip-path-6" transform="translate(-55.17 -52.09)"><rect class="cls-1" x="433.19" y="164" width="93.75" height="363"/></clipPath><clipPath id="clip-path-7" transform="translate(-55.17 -52.09)"><rect class="cls-1" x="332.65" y="464.98" width="23.32" height="59.39" transform="translate(688.62 989.35) rotate(180)"/></clipPath><clipPath id="clip-path-8" transform="translate(-55.17 -52.09)"><rect class="cls-1" x="501.96" y="466.89" width="27.73" height="57.78"/></clipPath><clipPath id="clip-path-9" transform="translate(-55.17 -52.09)"><rect class="cls-1" x="429.19" y="526.36" width="79.49" height="59.62"/></clipPath><clipPath id="clip-path-10" transform="translate(-55.17 -52.09)"><rect class="cls-1" x="432.02" y="531.18" width="95.08" height="57.47"/></clipPath><clipPath id="clip-path-11" transform="translate(-55.17 -52.09)"><rect class="cls-1" x="248.96" y="524.37" width="88.51" height="66.11"/></clipPath><clipPath id="clip-path-12" transform="translate(-55.17 -52.09)"><rect class="cls-1" x="263.26" y="531.18" width="95.08" height="57.47"/></clipPath></defs><g id="图层_1" data-name="图层 1"><g class="cls-2"><g class="cls-3"><g id="_网格重复_" data-name="&lt;网格重复&gt;"><path class="cls-4" d="M128.28,215H88.53a90,90,0,0,1,8.67-26.5,17.63,17.63,0,0,1-3.38-9.94,14.59,14.59,0,1,1,25.27,9.94,64.91,64.91,0,0,1,9.19,26.5Z" transform="translate(-55.17 -52.09)"/></g><g id="_网格重复_2" data-name="&lt;网格重复&gt;"><path class="cls-4" d="M178,215H138.28a90,90,0,0,1,8.67-26.5,17.63,17.63,0,0,1-3.38-9.94,14.59,14.59,0,1,1,25.27,9.94A64.91,64.91,0,0,1,178,215Z" transform="translate(-55.17 -52.09)"/></g><g id="_网格重复_3" data-name="&lt;网格重复&gt;"><path class="cls-4" d="M128.28,276.05H88.53a90,90,0,0,1,8.67-26.5A17.86,17.86,0,0,1,94.5,244a18.09,18.09,0,0,1-.68-4.42,14.59,14.59,0,1,1,25.27,9.93,65,65,0,0,1,9.19,26.5Z" transform="translate(-55.17 -52.09)"/></g><g id="_网格重复_4" data-name="&lt;网格重复&gt;"><path class="cls-4" d="M178,276.05H138.28a90,90,0,0,1,8.67-26.5,17.86,17.86,0,0,1-2.7-5.51,18.09,18.09,0,0,1-.68-4.42,14.59,14.59,0,1,1,25.27,9.93,65,65,0,0,1,9.19,26.5Z" transform="translate(-55.17 -52.09)"/></g><g id="_网格重复_5" data-name="&lt;网格重复&gt;"><path class="cls-4" d="M128.28,337.08H88.53a90,90,0,0,1,8.67-26.5,17.82,17.82,0,0,1-2.7-5.52,18.09,18.09,0,0,1-.68-4.42,14.59,14.59,0,1,1,25.27,9.94,65,65,0,0,1,9.19,26.5Z" transform="translate(-55.17 -52.09)"/></g><g id="_网格重复_6" data-name="&lt;网格重复&gt;"><path class="cls-4" d="M178,337.08H138.28a90,90,0,0,1,8.67-26.5,17.82,17.82,0,0,1-2.7-5.52,18.09,18.09,0,0,1-.68-4.42,14.59,14.59,0,1,1,25.27,9.94,65,65,0,0,1,9.19,26.5Z" transform="translate(-55.17 -52.09)"/></g><g id="_网格重复_7" data-name="&lt;网格重复&gt;"><path class="cls-4" d="M128.28,398.11H88.53a90,90,0,0,1,8.67-26.5,17.63,17.63,0,0,1-3.38-9.94,14.59,14.59,0,1,1,25.27,9.94,64.91,64.91,0,0,1,9.19,26.5Z" transform="translate(-55.17 -52.09)"/></g><g id="_网格重复_8" data-name="&lt;网格重复&gt;"><path class="cls-4" d="M178,398.11H138.28a90,90,0,0,1,8.67-26.5,17.63,17.63,0,0,1-3.38-9.94,14.59,14.59,0,1,1,25.27,9.94,64.91,64.91,0,0,1,9.19,26.5Z" transform="translate(-55.17 -52.09)"/></g><g id="_网格重复_9" data-name="&lt;网格重复&gt;"><path class="cls-4" d="M128.28,459.13H88.53a90,90,0,0,1,8.67-26.5,17.86,17.86,0,0,1-2.7-5.51,18.09,18.09,0,0,1-.68-4.42,14.59,14.59,0,1,1,25.27,9.93,65,65,0,0,1,9.19,26.5Z" transform="translate(-55.17 -52.09)"/></g><g id="_网格重复_10" data-name="&lt;网格重复&gt;"><path class="cls-4" d="M178,459.13H138.28a90,90,0,0,1,8.67-26.5,17.86,17.86,0,0,1-2.7-5.51,18.09,18.09,0,0,1-.68-4.42,14.59,14.59,0,1,1,25.27,9.93,65,65,0,0,1,9.19,26.5Z" transform="translate(-55.17 -52.09)"/></g><g id="_网格重复_11" data-name="&lt;网格重复&gt;"><path class="cls-4" d="M128.28,520.16H88.53a90,90,0,0,1,8.67-26.5,17.82,17.82,0,0,1-2.7-5.52,18.09,18.09,0,0,1-.68-4.42,14.59,14.59,0,1,1,25.27,9.94,65,65,0,0,1,9.19,26.5Z" transform="translate(-55.17 -52.09)"/></g><g id="_网格重复_12" data-name="&lt;网格重复&gt;"><path class="cls-4" d="M178,520.16H138.28a90,90,0,0,1,8.67-26.5,17.82,17.82,0,0,1-2.7-5.52,18.09,18.09,0,0,1-.68-4.42,14.59,14.59,0,1,1,25.27,9.94,65,65,0,0,1,9.19,26.5Z" transform="translate(-55.17 -52.09)"/></g></g></g><g class="cls-5"><g class="cls-6"><g id="_网格重复_13" data-name="&lt;网格重复&gt;"><path class="cls-4" d="M303.47,215H263.72a88.12,88.12,0,0,1,2.75-11.84,89.19,89.19,0,0,1,5.92-14.66,17.5,17.5,0,0,1-2.7-5.52,17.86,17.86,0,0,1-.69-4.42,14.59,14.59,0,1,1,25.27,9.94,65.12,65.12,0,0,1,6,12.68A66,66,0,0,1,303.47,215Z" transform="translate(-55.17 -52.09)"/></g><g id="_网格重复_14" data-name="&lt;网格重复&gt;"><path class="cls-4" d="M353.22,215H313.47a88.12,88.12,0,0,1,2.75-11.84,89.19,89.19,0,0,1,5.92-14.66,17.5,17.5,0,0,1-2.7-5.52,17.86,17.86,0,0,1-.69-4.42A14.59,14.59,0,1,1,344,188.53a65.12,65.12,0,0,1,6,12.68A66,66,0,0,1,353.22,215Z" transform="translate(-55.17 -52.09)"/></g><g id="_网格重复_15" data-name="&lt;网格重复&gt;"><path class="cls-4" d="M303.47,276.05H263.72a88.48,88.48,0,0,1,2.75-11.84,89.55,89.55,0,0,1,5.92-14.66,17.42,17.42,0,0,1-2.7-5.51,17.86,17.86,0,0,1-.69-4.42,14.59,14.59,0,1,1,25.27,9.93,65.24,65.24,0,0,1,6,12.69A65.91,65.91,0,0,1,303.47,276.05Z" transform="translate(-55.17 -52.09)"/></g><g id="_网格重复_16" data-name="&lt;网格重复&gt;"><path class="cls-4" d="M353.22,276.05H313.47a88.48,88.48,0,0,1,2.75-11.84,89.55,89.55,0,0,1,5.92-14.66,17.42,17.42,0,0,1-2.7-5.51,17.86,17.86,0,0,1-.69-4.42A14.59,14.59,0,1,1,344,249.55a65.24,65.24,0,0,1,6,12.69A65.91,65.91,0,0,1,353.22,276.05Z" transform="translate(-55.17 -52.09)"/></g><g id="_网格重复_17" data-name="&lt;网格重复&gt;"><path class="cls-4" d="M303.47,337.08H263.72a88.48,88.48,0,0,1,2.75-11.84,89.55,89.55,0,0,1,5.92-14.66,17.39,17.39,0,0,1-2.7-5.52,17.86,17.86,0,0,1-.69-4.42,14.59,14.59,0,1,1,25.27,9.94,65,65,0,0,1,6,12.69A65.77,65.77,0,0,1,303.47,337.08Z" transform="translate(-55.17 -52.09)"/></g><g id="_网格重复_18" data-name="&lt;网格重复&gt;"><path class="cls-4" d="M353.22,337.08H313.47a88.48,88.48,0,0,1,2.75-11.84,89.55,89.55,0,0,1,5.92-14.66,17.39,17.39,0,0,1-2.7-5.52,17.86,17.86,0,0,1-.69-4.42A14.59,14.59,0,1,1,344,310.58a65,65,0,0,1,6,12.69A65.77,65.77,0,0,1,353.22,337.08Z" transform="translate(-55.17 -52.09)"/></g><g id="_网格重复_19" data-name="&lt;网格重复&gt;"><path class="cls-4" d="M303.47,398.11H263.72a88.12,88.12,0,0,1,2.75-11.84,89.19,89.19,0,0,1,5.92-14.66,17.5,17.5,0,0,1-2.7-5.52,17.86,17.86,0,0,1-.69-4.42,14.59,14.59,0,1,1,25.27,9.94,65.12,65.12,0,0,1,6,12.68A66,66,0,0,1,303.47,398.11Z" transform="translate(-55.17 -52.09)"/></g><g id="_网格重复_20" data-name="&lt;网格重复&gt;"><path class="cls-4" d="M353.22,398.11H313.47a88.12,88.12,0,0,1,2.75-11.84,89.19,89.19,0,0,1,5.92-14.66,17.5,17.5,0,0,1-2.7-5.52,17.86,17.86,0,0,1-.69-4.42A14.59,14.59,0,1,1,344,371.61a65.12,65.12,0,0,1,6,12.68A66,66,0,0,1,353.22,398.11Z" transform="translate(-55.17 -52.09)"/></g><g id="_网格重复_21" data-name="&lt;网格重复&gt;"><path class="cls-4" d="M303.47,459.13H263.72a88.48,88.48,0,0,1,2.75-11.84,89.55,89.55,0,0,1,5.92-14.66,17.42,17.42,0,0,1-2.7-5.51,17.86,17.86,0,0,1-.69-4.42,14.59,14.59,0,1,1,25.27,9.93,65.24,65.24,0,0,1,6,12.69A65.91,65.91,0,0,1,303.47,459.13Z" transform="translate(-55.17 -52.09)"/></g><g id="_网格重复_22" data-name="&lt;网格重复&gt;"><path class="cls-4" d="M353.22,459.13H313.47a88.48,88.48,0,0,1,2.75-11.84,89.55,89.55,0,0,1,5.92-14.66,17.42,17.42,0,0,1-2.7-5.51,17.86,17.86,0,0,1-.69-4.42A14.59,14.59,0,1,1,344,432.63a65.24,65.24,0,0,1,6,12.69A65.91,65.91,0,0,1,353.22,459.13Z" transform="translate(-55.17 -52.09)"/></g><g id="_网格重复_23" data-name="&lt;网格重复&gt;"><path class="cls-4" d="M303.47,520.16H263.72a90,90,0,0,1,8.67-26.5,17.39,17.39,0,0,1-2.7-5.52,17.86,17.86,0,0,1-.69-4.42,14.59,14.59,0,1,1,25.27,9.94,65,65,0,0,1,6,12.69A65.77,65.77,0,0,1,303.47,520.16Z" transform="translate(-55.17 -52.09)"/></g><g id="_网格重复_24" data-name="&lt;网格重复&gt;"><path class="cls-4" d="M353.22,520.16H313.47a90,90,0,0,1,8.67-26.5,17.39,17.39,0,0,1-2.7-5.52,17.86,17.86,0,0,1-.69-4.42A14.59,14.59,0,1,1,344,493.66a65,65,0,0,1,6,12.69A65.77,65.77,0,0,1,353.22,520.16Z" transform="translate(-55.17 -52.09)"/></g></g></g><g class="cls-7"><g class="cls-8"><g id="_网格重复_25" data-name="&lt;网格重复&gt;"><path class="cls-4" d="M472.94,215H433.19a91.31,91.31,0,0,1,2.75-11.84,90.08,90.08,0,0,1,5.92-14.66,17.63,17.63,0,0,1-3.38-9.94,14.59,14.59,0,1,1,25.27,9.94,64.91,64.91,0,0,1,9.19,26.5Z" transform="translate(-55.17 -52.09)"/></g><g id="_网格重复_26" data-name="&lt;网格重复&gt;"><path class="cls-4" d="M522.69,215H482.94a91.31,91.31,0,0,1,2.75-11.84,90.08,90.08,0,0,1,5.92-14.66,17.63,17.63,0,0,1-3.38-9.94,14.59,14.59,0,1,1,25.27,9.94,64.91,64.91,0,0,1,9.19,26.5Z" transform="translate(-55.17 -52.09)"/></g><g id="_网格重复_27" data-name="&lt;网格重复&gt;"><path class="cls-4" d="M472.94,276.05H433.19a91.69,91.69,0,0,1,2.75-11.84,90.45,90.45,0,0,1,5.92-14.66,17.86,17.86,0,0,1-2.7-5.51,18.09,18.09,0,0,1-.68-4.42,14.59,14.59,0,1,1,25.27,9.93,65,65,0,0,1,9.19,26.5Z" transform="translate(-55.17 -52.09)"/></g><g id="_网格重复_28" data-name="&lt;网格重复&gt;"><path class="cls-4" d="M522.69,276.05H482.94a91.69,91.69,0,0,1,2.75-11.84,90.45,90.45,0,0,1,5.92-14.66,17.86,17.86,0,0,1-2.7-5.51,18.09,18.09,0,0,1-.68-4.42,14.59,14.59,0,1,1,25.27,9.93,65,65,0,0,1,9.19,26.5Z" transform="translate(-55.17 -52.09)"/></g><g id="_网格重复_29" data-name="&lt;网格重复&gt;"><path class="cls-4" d="M472.94,337.08H433.19a91.69,91.69,0,0,1,2.75-11.84,90.45,90.45,0,0,1,5.92-14.66,17.82,17.82,0,0,1-2.7-5.52,18.09,18.09,0,0,1-.68-4.42,14.59,14.59,0,1,1,25.27,9.94,65,65,0,0,1,9.19,26.5Z" transform="translate(-55.17 -52.09)"/></g><g id="_网格重复_30" data-name="&lt;网格重复&gt;"><path class="cls-4" d="M522.69,337.08H482.94a91.69,91.69,0,0,1,2.75-11.84,90.45,90.45,0,0,1,5.92-14.66,17.82,17.82,0,0,1-2.7-5.52,18.09,18.09,0,0,1-.68-4.42,14.59,14.59,0,1,1,25.27,9.94,65,65,0,0,1,9.19,26.5Z" transform="translate(-55.17 -52.09)"/></g><g id="_网格重复_31" data-name="&lt;网格重复&gt;"><path class="cls-4" d="M472.94,398.11H433.19a91.31,91.31,0,0,1,2.75-11.84,90.08,90.08,0,0,1,5.92-14.66,17.63,17.63,0,0,1-3.38-9.94,14.59,14.59,0,1,1,25.27,9.94,64.91,64.91,0,0,1,9.19,26.5Z" transform="translate(-55.17 -52.09)"/></g><g id="_网格重复_32" data-name="&lt;网格重复&gt;"><path class="cls-4" d="M522.69,398.11H482.94a91.31,91.31,0,0,1,2.75-11.84,90.08,90.08,0,0,1,5.92-14.66,17.63,17.63,0,0,1-3.38-9.94,14.59,14.59,0,1,1,25.27,9.94,64.91,64.91,0,0,1,9.19,26.5Z" transform="translate(-55.17 -52.09)"/></g><g id="_网格重复_33" data-name="&lt;网格重复&gt;"><path class="cls-4" d="M472.94,459.13H433.19a91.69,91.69,0,0,1,2.75-11.84,90.45,90.45,0,0,1,5.92-14.66,17.86,17.86,0,0,1-2.7-5.51,18.09,18.09,0,0,1-.68-4.42,14.59,14.59,0,1,1,25.27,9.93,65,65,0,0,1,9.19,26.5Z" transform="translate(-55.17 -52.09)"/></g><g id="_网格重复_34" data-name="&lt;网格重复&gt;"><path class="cls-4" d="M522.69,459.13H482.94a91.69,91.69,0,0,1,2.75-11.84,90.45,90.45,0,0,1,5.92-14.66,17.86,17.86,0,0,1-2.7-5.51,18.09,18.09,0,0,1-.68-4.42,14.59,14.59,0,1,1,25.27,9.93,65,65,0,0,1,9.19,26.5Z" transform="translate(-55.17 -52.09)"/></g><g id="_网格重复_35" data-name="&lt;网格重复&gt;"><path class="cls-4" d="M472.94,520.16H433.19a91.69,91.69,0,0,1,2.75-11.84,90.08,90.08,0,0,1,5.92-14.66,17.82,17.82,0,0,1-2.7-5.52,18.09,18.09,0,0,1-.68-4.42,14.59,14.59,0,1,1,25.27,9.94,65,65,0,0,1,9.19,26.5Z" transform="translate(-55.17 -52.09)"/></g><g id="_网格重复_36" data-name="&lt;网格重复&gt;"><path class="cls-4" d="M522.69,520.16H482.94a91.69,91.69,0,0,1,2.75-11.84,90.08,90.08,0,0,1,5.92-14.66,17.82,17.82,0,0,1-2.7-5.52,18.09,18.09,0,0,1-.68-4.42,14.59,14.59,0,1,1,25.27,9.94,65,65,0,0,1,9.19,26.5Z" transform="translate(-55.17 -52.09)"/></g></g></g></g><g id="图层_3" data-name="图层 3"><g class="cls-9"><path class="cls-10" d="M321.83,493.57a14.6,14.6,0,0,1-3.23-5.51,17.16,17.16,0,0,1-.68-4.42,14.59,14.59,0,1,1,25.27,9.93,65,65,0,0,1,9.19,26.5H312.63a75.74,75.74,0,0,1,9.2-26.5Z" transform="translate(-55.17 -52.09)"/></g><g class="cls-11"><path class="cls-10" d="M492.29,493.57a14.66,14.66,0,0,1-3.23-5.52,17.06,17.06,0,0,1-.68-4.42,14.59,14.59,0,1,1,25.26,9.94,64.73,64.73,0,0,1,9.2,26.5H483.09a75.74,75.74,0,0,1,9.2-26.5Z" transform="translate(-55.17 -52.09)"/></g><g class="cls-12"><g class="cls-13"><g id="_网格重复_37" data-name="&lt;网格重复&gt;"><path class="cls-10" d="M471.77,582.21H432c.43-2.65,1-5.55,1.83-8.62,0,0,.45-1.69.92-3.22a86.53,86.53,0,0,1,6.45-14.66,14.59,14.59,0,1,1,21.35,0,65.24,65.24,0,0,1,6,12.69A64.53,64.53,0,0,1,471.77,582.21Z" transform="translate(-55.17 -52.09)"/></g><g id="_网格重复_38" data-name="&lt;网格重复&gt;"><path class="cls-10" d="M521.52,582.21H481.77c.43-2.65,1-5.55,1.83-8.62,0,0,.45-1.69.92-3.22A86.53,86.53,0,0,1,491,555.71a14.59,14.59,0,1,1,21.35,0,65.24,65.24,0,0,1,6,12.69A64.53,64.53,0,0,1,521.52,582.21Z" transform="translate(-55.17 -52.09)"/></g></g></g><g class="cls-14"><g class="cls-15"><g id="_网格重复_39" data-name="&lt;网格重复&gt;"><path class="cls-10" d="M303,582.21H263.26a85,85,0,0,1,1.83-8.62s.45-1.69.91-3.22a88.18,88.18,0,0,1,6.45-14.66,14.59,14.59,0,1,1,21.36,0,65.26,65.26,0,0,1,9.2,26.5Z" transform="translate(-55.17 -52.09)"/></g><g id="_网格重复_40" data-name="&lt;网格重复&gt;"><path class="cls-10" d="M352.76,582.21H313a85,85,0,0,1,1.83-8.62s.45-1.69.91-3.22a88.18,88.18,0,0,1,6.45-14.66,14.59,14.59,0,1,1,21.36,0,65.26,65.26,0,0,1,9.2,26.5Z" transform="translate(-55.17 -52.09)"/></g></g></g></g><g id="图层_4" data-name="图层 4"><path class="cls-1" d="M55.17,72.62H561.52V241.41H55.17Z" transform="translate(-55.17 -52.09)"/><path class="cls-16" d="M139.56,103.12,308.34,77.54l168.79-2.15" transform="translate(-55.17 -52.09)"/><path class="cls-17" d="M144.73,103.12A5.17,5.17,0,1,1,139.56,98a5.17,5.17,0,0,1,5.17,5.16" transform="translate(-55.17 -52.09)"/><path class="cls-17" d="M313.51,77.54a5.17,5.17,0,1,1-5.17-5.17,5.17,5.17,0,0,1,5.17,5.17" transform="translate(-55.17 -52.09)"/><path class="cls-17" d="M482.3,75.39a5.17,5.17,0,1,1-5.17-5.17,5.17,5.17,0,0,1,5.17,5.17" transform="translate(-55.17 -52.09)"/><g class="cls-18"><path class="cls-19" d="M127.76,91.31h-8.61V89.65h3.39v-7.1a11.32,11.32,0,0,1-3.08,2v-2a13.69,13.69,0,0,0,1.77-.76,10.41,10.41,0,0,0,1-.84,4.78,4.78,0,0,0,1-1.12h1.35v9.82h3.18Z" transform="translate(-55.17 -52.09)"/><path class="cls-19" d="M137.66,91.31h-8.61V89.65h3.38v-7.1a11.29,11.29,0,0,1-3.07,2v-2a12.69,12.69,0,0,0,1.76-.76,9.23,9.23,0,0,0,1-.84,4.78,4.78,0,0,0,1-1.12h1.35v9.82h3.18Z" transform="translate(-55.17 -52.09)"/><path class="cls-19" d="M141.23,89.15v2.16h-2V89.15Z" transform="translate(-55.17 -52.09)"/><path class="cls-19" d="M149.89,91.31H147.8V88.75h-5V87.27l5-7.44h2.09V87h1.69v1.73h-1.69ZM148,82,144.76,87h3v-3.1a7.8,7.8,0,0,1,0-.89Z" transform="translate(-55.17 -52.09)"/><path class="cls-19" d="M152.26,80.06h8v1.43a17.78,17.78,0,0,0-2.76,4.68,19,19,0,0,0-.82,5.14h-2.31a14.44,14.44,0,0,1,4.17-9.51h-6.44Z" transform="translate(-55.17 -52.09)"/></g><g class="cls-18"><path class="cls-19" d="M296.23,65.73h-8.61V64.07H291V57a11.09,11.09,0,0,1-3.08,2V57a12.35,12.35,0,0,0,1.77-.76,10,10,0,0,0,1-.84,4.74,4.74,0,0,0,1-1.12h1.35v9.83h3.18Z" transform="translate(-55.17 -52.09)"/><path class="cls-19" d="M300,60.76v-1.6h1a2.72,2.72,0,0,0,1.55-.42,1.36,1.36,0,0,0,.61-1.22,1.43,1.43,0,0,0-.52-1.21,2.15,2.15,0,0,0-1.35-.4,2.24,2.24,0,0,0-2.26,1.63l-1.86-.32a3.54,3.54,0,0,1,1.45-2.1,4.94,4.94,0,0,1,5.45,0,2.59,2.59,0,0,1,1.12,2.2,2.67,2.67,0,0,1-.6,1.75,2.15,2.15,0,0,1-1.5.79,2.87,2.87,0,0,1,1.78.91,2.65,2.65,0,0,1,.67,1.81A2.92,2.92,0,0,1,304.41,65a4.78,4.78,0,0,1-3.1.94,4.72,4.72,0,0,1-3-.91,4,4,0,0,1-1.47-2.09l1.92-.47a2.64,2.64,0,0,0,4.09,1.37,1.56,1.56,0,0,0,.6-1.22A1.79,1.79,0,0,0,303,61.3a2.12,2.12,0,0,0-1.58-.54Z" transform="translate(-55.17 -52.09)"/><path class="cls-19" d="M309.41,63.57v2.16h-2V63.57Z" transform="translate(-55.17 -52.09)"/><path class="cls-19" d="M312.21,54.48h7L319,56.21H313.7l-.32,3.27a3.23,3.23,0,0,1,2.65-1.3,3.73,3.73,0,0,1,2.74,1.13A3.63,3.63,0,0,1,319.88,62a3.74,3.74,0,0,1-1.17,2.77,4.37,4.37,0,0,1-3.21,1.16,5.3,5.3,0,0,1-2.84-.75,3.56,3.56,0,0,1-1.58-2.33l1.95-.29a2.28,2.28,0,0,0,2.36,1.72,2.17,2.17,0,0,0,1.71-.67,2.35,2.35,0,0,0,.59-1.61,2.24,2.24,0,0,0-.59-1.59,2,2,0,0,0-1.54-.65A2.38,2.38,0,0,0,313.38,61l-1.81-.35Z" transform="translate(-55.17 -52.09)"/><path class="cls-19" d="M321.32,63.69l1.7-.49a2,2,0,0,0,1.89,1.17,2.14,2.14,0,0,0,2-1.18,6.71,6.71,0,0,0,.71-3.28,3.11,3.11,0,0,1-1.37,1.46,3.92,3.92,0,0,1-1.58.32,3.73,3.73,0,0,1-2.64-1,3.4,3.4,0,0,1-1.07-2.61,3.65,3.65,0,0,1,1.1-2.71A4,4,0,0,1,325,54.3a4.25,4.25,0,0,1,3.32,1.42,6,6,0,0,1,1.27,4.07,7.41,7.41,0,0,1-1.22,4.4,4,4,0,0,1-3.45,1.71,3.89,3.89,0,0,1-2.33-.66A3.14,3.14,0,0,1,321.32,63.69ZM325,60.06a2.36,2.36,0,0,0,1.56-.58,2.11,2.11,0,0,0,.67-1.67,1.93,1.93,0,0,0-.59-1.36,2.38,2.38,0,0,0-3.18,0,2,2,0,0,0-.61,1.51,2.12,2.12,0,0,0,.57,1.44A2,2,0,0,0,325,60.06Z" transform="translate(-55.17 -52.09)"/></g><g class="cls-18"><path class="cls-19" d="M465.15,63.57h-8.62V61.92h3.39V54.81a11.44,11.44,0,0,1-3.07,2v-2a13.31,13.31,0,0,0,1.76-.76,9,9,0,0,0,1-.84,4.52,4.52,0,0,0,1-1.12H462v9.83h3.19Z" transform="translate(-55.17 -52.09)"/><path class="cls-19" d="M468.93,58.6V57h1a2.68,2.68,0,0,0,1.54-.41,1.38,1.38,0,0,0,.62-1.23,1.43,1.43,0,0,0-.53-1.2,2.1,2.1,0,0,0-1.34-.4A2.25,2.25,0,0,0,468,55.39l-1.85-.32A3.62,3.62,0,0,1,467.57,53a4.6,4.6,0,0,1,2.74-.81A4.45,4.45,0,0,1,473,53a2.6,2.6,0,0,1,1.13,2.2,2.64,2.64,0,0,1-.61,1.74,2,2,0,0,1-1.5.79,2.88,2.88,0,0,1,1.78.92,2.59,2.59,0,0,1,.67,1.8,2.94,2.94,0,0,1-1.16,2.39,4.86,4.86,0,0,1-3.11.93,4.63,4.63,0,0,1-3-.91,3.84,3.84,0,0,1-1.47-2.08l1.92-.47a2.65,2.65,0,0,0,4.08,1.37,1.54,1.54,0,0,0,.61-1.23,1.8,1.8,0,0,0-.53-1.27,2.09,2.09,0,0,0-1.57-.55Z" transform="translate(-55.17 -52.09)"/><path class="cls-19" d="M478.32,61.41v2.16h-2V61.41Z" transform="translate(-55.17 -52.09)"/><path class="cls-19" d="M480.37,52.32h8v1.44a17.25,17.25,0,0,0-2.75,4.67,18.33,18.33,0,0,0-.82,5.14h-2.32a14.44,14.44,0,0,1,4.17-9.51H480.2Z" transform="translate(-55.17 -52.09)"/><path class="cls-19" d="M490,52.32h8v1.44a17.06,17.06,0,0,0-2.76,4.67,18.7,18.7,0,0,0-.82,5.14H492.1a14.53,14.53,0,0,1,4.17-9.51h-6.43Z" transform="translate(-55.17 -52.09)"/></g></g></svg>